/* XPM */
static char * maximize_active_xpm[] = {
"26 23 13 1",
" 	c None",
".	c #324032",
"+	c #0C100C",
"@	c #0F130F",
"#	c #101610",
"$	c #111711",
"%	c #AAC0AA",
"&	c #121812",
"*	c #131913",
"=	c #151B15",
"-	c #161C16",
";	c #171D17",
">	c #171F17",
"                          ",
".+++++++++++++++++++++++++",
".+++++++++++++++++++++++++",
".+@@@@@@@@@@@@@@@@@@@@@@@+",
".+#######################+",
".+$$$$$$$$%%%%%%%$$$$$$$$+",
".+&&&&&&&&%%%%%%%&&&&&&&&+",
".+&&&&&&&&%&&&&&%&&&&&&&&+",
".+********%*****%********+",
".+========%=====%========+",
".+========%%%%%%%========+",
".+-----------------------+",
".+;;;;;;;;;;;;;;;;;;;;;;;+",
".+>>>>>>>>>>>>>>>>>>>>>>>+",
".=>>>>>>>>>>>>>>>>>>>>>>>=",
"..........................",
"                          ",
"                          ",
"                          ",
"                          ",
"                          ",
"                          ",
"                          "};
